<?xml version="1.0" encoding="UTF-8" standalone="no"?>
<!DOCTYPE svg PUBLIC "-//W3C//DTD SVG 20010904//EN"
              "http://www.w3.org/TR/2001/REC-SVG-20010904/DTD/svg10.dtd">

<svg xmlns="http://www.w3.org/2000/svg"
     width="13.6533in" height="13.6533in"
     viewBox="0 0 4096 4096">
  <path id="Unnamed #2"
        fill="none" stroke="black" stroke-width="1"
        d="M 693.05,864.23
           C 1043.75,300.60 1344.36,271.38 1724.28,233.80
             2104.21,196.23 3026.89,187.88 3152.14,513.53
             3277.39,839.18 2559.29,718.10 2985.14,1035.40
             3410.99,1352.71 4095.69,1340.18 3728.29,1862.06
             3360.89,2383.93 2008.18,1832.83 2342.18,2375.58
             2676.19,2918.34 3736.64,2839.01 3331.66,3356.71
             2926.69,3874.42 1749.33,3928.69 1373.58,3836.84
             997.83,3744.99 826.65,3573.81 676.35,3227.29
             526.05,2880.76 943.55,2388.11 1093.85,2246.16
             1244.16,2104.21 1164.83,1452.91 889.28,1381.93
             613.73,1310.96 504.03,1142.80 692.86,863.98" />
</svg>
