<?xml version="1.0" encoding="UTF-8" standalone="no"?>
<!DOCTYPE svg PUBLIC "-//W3C//DTD SVG 20010904//EN"
              "http://www.w3.org/TR/2001/REC-SVG-20010904/DTD/svg10.dtd">

<svg xmlns="http://www.w3.org/2000/svg"
     width="13.6533in" height="13.6533in"
     viewBox="0 0 4096 4096">
  <path id="Unnamed"
        fill="none" stroke="black" stroke-width="1"
        d="M 620.00,1212.00
           C 908.00,572.00 1696.00,336.00 2060.00,364.00
             2424.00,392.00 3192.00,388.00 3288.00,732.00
             3384.00,1076.00 2648.00,1336.00 2412.00,1368.00
             2176.00,1400.00 1608.00,1588.00 1844.00,1824.00
             2080.00,2060.00 1852.00,2552.00 2616.00,2304.00
             3380.00,2056.00 3732.00,1828.00 3820.00,2512.00
             3908.00,3196.00 3484.00,3484.00 2884.00,3596.00
             2284.00,3708.00 1872.00,3884.00 1280.00,3488.00
             688.00,3092.00 328.00,3180.00 660.00,2652.00
             992.00,2124.00 1039.38,2014.45 931.38,1758.45
             823.38,1502.45 379.65,1604.39 619.65,1212.39M -193.04,2397.38" />
</svg>
